<?xml version="1.0" standalone="no"?>
<!DOCTYPE svg PUBLIC "-//W3C//DTD SVG 20010904//EN"
 "http://www.w3.org/TR/2001/REC-SVG-20010904/DTD/svg10.dtd">
<svg version="1.0" xmlns="http://www.w3.org/2000/svg"
 width="200.000000pt" height="200.000000pt" viewBox="0 0 200.000000 200.000000"
 preserveAspectRatio="xMidYMid meet">
<metadata>
Created by potrace 1.11, written by Peter Selinger 2001-2013
</metadata>
<g transform="translate(0.000000,200.000000) scale(0.100000,-0.100000)"
fill="#000000" stroke="none">
<path d="M0 1000 l0 -1000 1000 0 1000 0 0 1000 0 1000 -1000 0 -1000 0 0
-1000z m800 305 l0 -75 -60 0 c-33 0 -60 -3 -60 -7 0 -5 25 -104 57 -222 40
-150 59 -208 65 -195 8 19 158 559 158 569 0 3 35 5 78 5 l78 0 74 -290 c40
-160 76 -287 80 -283 4 4 30 94 59 198 28 105 54 198 57 208 5 15 -2 17 -50
17 l-56 0 0 75 0 75 165 0 165 0 0 -75 0 -75 -45 0 -44 0 -14 -47 c-8 -27 -49
-177 -92 -335 l-79 -288 -122 0 -123 0 -14 52 c-9 29 -32 116 -52 193 -20 77
-38 147 -41 155 -3 8 -32 -77 -63 -190 l-57 -205 -125 -3 -124 -2 -86 332 -85
333 -52 3 -52 3 0 75 0 74 230 0 230 0 0 -75z"/>
</g>
</svg>
